<svg width="82" height="82" viewBox="0 0 82 82" fill="none" xmlns="http://www.w3.org/2000/svg">
<circle cx="41" cy="41" r="41" fill="#D4D9DC"/>
<path d="M34.3026 51.4141V50.3949C34.3026 47.5777 34.5346 45.3321 34.9986 43.6584C35.4792 41.9846 36.1752 40.6423 37.0867 39.6314C37.9981 38.6039 39.1085 37.6676 40.4177 36.8224C41.4617 36.1596 42.3897 35.4884 43.2017 34.8089C44.0303 34.1129 44.6849 33.3672 45.1655 32.5717C45.6461 31.7763 45.8864 30.8731 45.8864 29.8622C45.8864 28.8845 45.6544 28.0227 45.1904 27.277C44.7264 26.5312 44.0883 25.9595 43.2763 25.5618C42.4809 25.1475 41.5943 24.9403 40.6165 24.9403C39.6388 24.9403 38.719 25.1641 37.8573 25.6115C37.0121 26.0589 36.3161 26.697 35.7692 27.5256C35.2389 28.3376 34.9655 29.3236 34.9489 30.4837H23.5142C23.564 27.0036 24.3677 24.1532 25.9255 21.9325C27.4998 19.7119 29.5796 18.0713 32.1648 17.0107C34.75 15.9335 37.6004 15.3949 40.7159 15.3949C44.1298 15.3949 47.1624 15.9252 49.814 16.9858C52.482 18.0464 54.5784 19.6125 56.103 21.6839C57.6276 23.7554 58.39 26.291 58.39 29.2905C58.39 31.2625 58.0585 33.0026 57.3956 34.5107C56.7328 36.0187 55.8047 37.3527 54.6115 38.5128C53.4349 39.6562 52.0512 40.7003 50.4603 41.6449C49.2174 42.3741 48.1816 43.1364 47.353 43.9318C46.541 44.7273 45.9278 45.6387 45.5135 46.6662C45.0992 47.6771 44.8921 48.92 44.8921 50.3949V51.4141H34.3026ZM39.7962 67.7209C38.0064 67.7209 36.4735 67.0911 35.1975 65.8317C33.938 64.5722 33.3166 63.0476 33.3331 61.2578C33.3166 59.5012 33.938 58.0014 35.1975 56.7585C36.4735 55.4991 38.0064 54.8693 39.7962 54.8693C41.5031 54.8693 43.0029 55.4991 44.2955 56.7585C45.5881 58.0014 46.2427 59.5012 46.2593 61.2578C46.2427 62.451 45.9278 63.5365 45.3147 64.5142C44.7181 65.492 43.9309 66.2708 42.9532 66.8509C41.992 67.4309 40.9397 67.7209 39.7962 67.7209Z" fill="white"/>
</svg>
