<svg width="54" height="90" viewBox="0 0 54 90" fill="none" xmlns="http://www.w3.org/2000/svg">
<path d="M4.49748 49.0938C2.15433 46.7697 2.15433 43.0017 4.49748 40.6777L41.267 4.20811C43.6102 1.88408 47.4092 1.88409 49.7523 4.20812V4.20812C52.0955 6.53215 52.0955 10.3001 49.7523 12.6242L12.9828 49.0938C10.6396 51.4178 6.84062 51.4178 4.49748 49.0938V49.0938Z" fill="#727981"/>
<path d="M49.4975 85.792C47.1544 88.116 43.3554 88.116 41.0122 85.792L4.24269 49.3224C1.89954 46.9983 1.89955 43.2303 4.24269 40.9063V40.9063C6.58584 38.5823 10.3848 38.5823 12.728 40.9063L49.4975 77.3759C51.8407 79.6999 51.8407 83.4679 49.4975 85.792V85.792Z" fill="#727981"/>
</svg>
