<svg width="81" height="89" viewBox="0 0 81 89" fill="none" xmlns="http://www.w3.org/2000/svg">
<path d="M76.1969 82.1191C73.9228 84.5103 70.2357 84.5103 67.9616 82.1191L4.11765 14.989C1.84353 12.5978 1.84353 8.72093 4.11766 6.32975V6.32975C6.39178 3.93857 10.0789 3.93857 12.353 6.32975L76.1969 73.4599C78.471 75.8511 78.471 79.7279 76.1969 82.1191V82.1191Z" fill="#727981"/>
<path d="M4.11766 82.1192C1.84354 79.728 1.84354 75.8511 4.11766 73.4599L67.9616 6.32978C70.2357 3.93861 73.9228 3.93861 76.1969 6.32979V6.32979C78.471 8.72096 78.471 12.5978 76.1969 14.989L12.353 82.1192C10.0789 84.5103 6.39178 84.5103 4.11766 82.1192V82.1192Z" fill="#727981"/>
</svg>
