<svg width="106" height="106" viewBox="0 0 106 106" fill="none" xmlns="http://www.w3.org/2000/svg">
<circle cx="53" cy="53" r="53" fill="#6995F4"/>
<path d="M53.5037 76.7945C51.2434 76.908 49.411 75.1653 49.411 72.9021V32.5089C49.411 30.2457 51.2434 28.319 53.5037 28.2055V28.2055C55.764 28.092 57.5964 29.8347 57.5964 32.0979V72.4911C57.5964 74.7543 55.764 76.681 53.5037 76.7945V76.7945Z" fill="white"/>
<path d="M29.2054 52.0927C29.3189 49.8324 31.2456 48 33.5088 48H73.9021C76.1653 48 77.9079 49.8324 77.7944 52.0927V52.0927C77.6809 54.3531 75.7542 56.1854 73.4911 56.1854H33.0978C30.8346 56.1854 29.0919 54.3531 29.2054 52.0927V52.0927Z" fill="white"/>
</svg>
