<svg width="106" height="106" viewBox="0 0 106 106" fill="none" xmlns="http://www.w3.org/2000/svg">
<path fill-rule="evenodd" clip-rule="evenodd" d="M106 53C106 82.2711 82.2711 106 53 106C23.7289 106 0 82.2711 0 53C0 23.7289 23.7289 0 53 0C82.2711 0 106 23.7289 106 53ZM52.9912 94.649C49.1301 94.8428 46 91.866 46 88V59.9824H18.2979C14.4319 59.9824 11.4551 56.8523 11.649 52.9912C11.8428 49.1301 15.134 46 19 46H46V19C46 15.134 49.1301 11.8428 52.9912 11.649C56.8523 11.4551 59.9824 14.4319 59.9824 18.2979V46H88C91.866 46 94.8428 49.1301 94.649 52.9912C94.4551 56.8523 91.1639 59.9824 87.2979 59.9824H59.9824V87.2979C59.9824 91.1639 56.8523 94.4551 52.9912 94.649Z" fill="#939CA3"/>
</svg>
