<svg width="14" height="22" viewBox="0 0 14 22" fill="none" xmlns="http://www.w3.org/2000/svg">
<path d="M1.43285 11.8602C0.64151 11.0896 0.64151 9.84014 1.43285 9.06952L9.31355 1.39523C10.1049 0.624615 11.3879 0.624615 12.1793 1.39523V1.39523C12.9706 2.16585 12.9706 3.41526 12.1793 4.18588L4.29856 11.8602C3.50722 12.6308 2.2242 12.6308 1.43285 11.8602V11.8602Z" fill="#727981"/>
<path d="M12.1793 19.86C11.3879 20.6307 10.1049 20.6307 9.31355 19.86L1.43285 12.1858C0.64151 11.4151 0.64151 10.1657 1.43285 9.39511V9.39511C2.2242 8.62449 3.50722 8.62449 4.29856 9.39511L12.1793 17.0694C12.9706 17.84 12.9706 19.0894 12.1793 19.86V19.86Z" fill="#727981"/>
</svg>
