<svg width="22" height="22" viewBox="0 0 22 22" fill="none" xmlns="http://www.w3.org/2000/svg">
<path d="M1.34153 19.8682C2.08243 20.6874 3.31621 20.7184 4.09726 19.9373L19.6536 4.381C20.4347 3.59995 20.4672 2.30267 19.7263 1.48343V1.48343C18.9854 0.664196 17.7516 0.633239 16.9706 1.41429L1.41423 16.9706C0.633186 17.7517 0.600636 19.049 1.34153 19.8682V19.8682Z" fill="#727981"/>
<path d="M19.7263 19.8681C20.4672 19.0489 20.4346 17.7516 19.6536 16.9706L4.09725 1.4142C3.3162 0.633155 2.08242 0.664111 1.34152 1.48335V1.48335C0.600626 2.30258 0.633176 3.59987 1.41422 4.38092L16.9706 19.9373C17.7516 20.7183 18.9854 20.6874 19.7263 19.8681V19.8681Z" fill="#727981"/>
</svg>
